<?xml version="1.0" encoding="UTF-8" standalone="no"?>
<!-- Created with Inkscape (http://www.inkscape.org/) -->

<svg
   xmlns:dc="http://purl.org/dc/elements/1.1/"
   xmlns:cc="http://creativecommons.org/ns#"
   xmlns:rdf="http://www.w3.org/1999/02/22-rdf-syntax-ns#"
   xmlns:svg="http://www.w3.org/2000/svg"
   xmlns="http://www.w3.org/2000/svg"
   xmlns:sodipodi="http://sodipodi.sourceforge.net/DTD/sodipodi-0.dtd"
   xmlns:inkscape="http://www.inkscape.org/namespaces/inkscape"
   width="400"
   height="400"
   viewBox="0 0 400 400.00001"
   id="svg2"
   version="1.1"
   inkscape:version="0.91 r13725"
   sodipodi:docname="kisside_icon.svg"
   inkscape:export-filename="C:\Users\Derry\Pictures\kisside_icon.png"
   inkscape:export-xdpi="90"
   inkscape:export-ydpi="90">
  <defs
     id="defs4">
    <filter
       style="color-interpolation-filters:sRGB;"
       inkscape:label="Drop Shadow"
       id="filter4932">
      <feFlood
         flood-opacity="0.498039"
         flood-color="rgb(0,0,0)"
         result="flood"
         id="feFlood4934" />
      <feComposite
         in="flood"
         in2="SourceGraphic"
         operator="in"
         result="composite1"
         id="feComposite4936" />
      <feGaussianBlur
         in="composite1"
         stdDeviation="3"
         result="blur"
         id="feGaussianBlur4938" />
      <feOffset
         dx="3"
         dy="3"
         result="offset"
         id="feOffset4940" />
      <feComposite
         in="SourceGraphic"
         in2="offset"
         operator="over"
         result="composite2"
         id="feComposite4942" />
    </filter>
  </defs>
  <sodipodi:namedview
     id="base"
     pagecolor="#ffffff"
     bordercolor="#666666"
     borderopacity="1.0"
     inkscape:pageopacity="0.0"
     inkscape:pageshadow="2"
     inkscape:zoom="1.4"
     inkscape:cx="149.88765"
     inkscape:cy="234.28571"
     inkscape:document-units="px"
     inkscape:current-layer="layer1"
     showgrid="false"
     units="px"
     borderlayer="true"
     inkscape:snap-page="true"
     inkscape:window-width="1920"
     inkscape:window-height="1018"
     inkscape:window-x="1912"
     inkscape:window-y="-8"
     inkscape:window-maximized="1" />
  <metadata
     id="metadata7">
    <rdf:RDF>
      <cc:Work
         rdf:about="">
        <dc:format>image/svg+xml</dc:format>
        <dc:type
           rdf:resource="http://purl.org/dc/dcmitype/StillImage" />
        <dc:title></dc:title>
      </cc:Work>
    </rdf:RDF>
  </metadata>
  <g
     inkscape:label="Layer 1"
     inkscape:groupmode="layer"
     id="layer1"
     transform="translate(0,-652.36216)">
    <rect
       style="opacity:1;fill:#ffffff;fill-opacity:1;stroke:none;stroke-width:30;stroke-miterlimit:4;stroke-dasharray:none;stroke-opacity:1"
       id="rect4150"
       width="400"
       height="400"
       x="0"
       y="652.36218"
       ry="47.857143" />
    <g
       id="g4138"
       transform="matrix(1.9047791,0,0,1.9047791,-578.25244,-136.08092)"
       style="filter:url(#filter4932)">
      <path
         id="path4140"
         d="m 435.05909,584.66461 c -1.33206,-0.0187 -2.69317,-1.12903 -3.93205,-3.20746 l -1.89478,-3.1788 0.52796,4.0253 c 0.94444,7.20063 -5.5573,7.75123 -9.03745,0.76536 -1.06368,-2.13519 -2.36377,-3.99733 -2.88908,-4.13809 -0.52531,-0.14076 0.0327,1.46876 1.23995,3.57668 1.20725,2.10792 2.16486,4.5699 2.12793,5.47103 -0.0864,2.10913 -4.32429,3.38491 -7.98532,2.40394 -1.48352,-0.39751 -3.49608,-0.26156 -4.47236,0.30209 -2.74441,1.58449 -7.33949,1.46098 -13.18418,-0.35437 -2.93314,-0.91104 -6.06843,-1.23183 -6.9673,-0.71287 -2.12533,1.22706 -7.47022,-0.93832 -9.26698,-3.75436 -0.91218,-1.42964 -1.23937,-1.59254 -0.92909,-0.46256 0.91748,3.34122 -2.58556,3.83765 -5.63253,0.7982 -2.35417,-2.34837 -3.21867,-2.61617 -5.04384,-1.5624 -2.25834,1.30385 -3.77164,0.95462 -10.56302,-2.4376 -2.14824,-1.07303 -5.58608,-2.11136 -7.63964,-2.3074 -2.4851,-0.23725 -4.15828,-1.09176 -5.00319,-2.5552 -0.92223,-1.59735 -1.54568,-1.85771 -2.27935,-0.95192 -0.60878,0.75161 -1.99085,0.75204 -3.47966,10e-4 -1.35837,-0.68516 -3.75087,-1.12228 -5.31665,-0.97139 -3.853,0.37131 -13.95024,-1.57084 -14.72557,-2.83239 -0.34377,-0.55937 -0.14243,-2.05239 0.44743,-3.31783 0.92293,-1.97999 1.49212,-2.31874 4.08219,-2.42945 1.65534,-0.0707 3.49824,-0.40748 4.09533,-0.7483 0.59709,-0.34082 1.31061,-0.22995 1.58561,0.24636 0.275,0.47632 1.27942,0.41603 2.23205,-0.13397 0.95263,-0.55 2.90001,-0.68705 4.3275,-0.30455 1.87315,0.50191 2.70648,0.28107 2.99441,-0.79351 0.28793,-1.07458 1.51506,-1.57688 4.40944,-1.80493 3.89561,-0.30694 4.05446,-0.2022 5.54605,3.65689 l 1.53557,3.97289 0.35198,-4.53335 c 0.3093,-3.98369 0.77829,-4.77947 3.86807,-6.56336 1.93386,-1.11651 5.30103,-3.89194 7.4826,-6.16762 4.76815,-4.97385 7.53027,-5.17397 5.77888,-0.41871 -0.90198,2.44902 -0.82676,2.80085 0.44831,2.09666 0.8427,-0.4654 1.32919,-1.19777 1.0811,-1.62749 -0.63804,-1.1051 3.36533,-5.52003 6.80755,-7.5074 2.12287,-1.22564 3.124,-1.29064 3.72936,-0.24213 0.76999,1.33366 0.88004,1.27012 1.58373,-0.91437 0.84016,-2.60813 5.63536,-5.85173 6.94029,-4.69459 0.45958,0.40754 2.59533,-0.24324 4.7461,-1.44618 4.86779,-2.72257 8.43371,-3.35272 9.40941,-1.66276 0.41094,0.71177 0.76893,3.13183 0.79553,5.3779 0.0506,4.2729 1.00895,6.92304 2.24536,6.2092 0.40008,-0.23099 0.34312,-2.26984 -0.12656,-4.5308 -0.98702,-4.75124 0.65824,-8.77345 4.21948,-10.31556 1.95994,-0.84869 2.72373,-0.62654 3.60383,1.04818 1.04784,1.9939 1.13193,1.98518 1.362,-0.14133 0.13487,-1.24655 0.73608,-2.65479 1.33602,-3.12944 0.59994,-0.47465 1.71358,-1.54524 2.47475,-2.37909 1.93036,-2.11467 5.2005,0.42611 8.98493,6.98093 2.19876,3.80837 3.25216,4.95421 3.88018,4.22068 0.47414,-0.55378 0.34824,-1.69353 -0.27977,-2.53277 -0.62801,-0.83924 -2.58098,-3.42297 -4.33994,-5.74163 l -3.19811,-4.21575 3.51617,-2.03007 c 3.70692,-2.14019 3.88379,-2.06837 9.97996,4.05303 1.30328,1.30867 -1.23536,-2.3923 -4.53008,-6.60423 -1.77404,-2.26789 3.23322,-7.15341 6.61164,-6.4509 2.06462,0.42932 2.36984,0.26242 2.76474,-1.51175 0.28847,-1.29607 1.39518,-2.31617 3.16083,-2.91347 2.13098,-0.72088 2.62159,-1.35311 2.27481,-2.93147 -0.51312,-2.33552 0.12942,-2.91023 2.59928,-2.32494 1.41799,0.33602 1.72688,0.15769 1.54441,-0.89167 -0.24989,-1.43718 1.97897,-3.15567 2.63011,-2.02786 0.22244,0.38528 1.44462,1.10859 2.71596,1.60736 2.08823,0.81927 2.02867,0.71472 -0.61663,-1.08219 -4.14686,-2.8169 -4.07781,-4.64306 0.28927,-7.64978 2.76229,-1.90183 4.28754,-2.36809 5.97177,-1.82555 2.89089,0.93124 4.12126,0.22726 2.67203,-1.52883 -1.40164,-1.69843 2.85434,-5.06877 6.55107,-5.18785 1.76554,-0.0569 2.55203,-0.4918 2.84126,-1.57122 0.51942,-1.93852 4.47432,-4.20751 6.42347,-3.68523 0.89215,0.23905 1.82417,-0.171 2.25597,-0.99254 1.21097,-2.30401 5.56158,-4.67496 8.85994,-4.8284 2.42284,-0.1127 2.95703,-0.38463 2.46725,-1.25596 -0.73429,-1.3063 6.72795,-10.88079 9.13372,-11.71911 3.21627,-1.12074 4.54621,2.70181 2.86595,8.23742 -3.0829,10.15665 -4.6964,12.69351 -6.95167,10.92988 -0.58399,-0.45669 -0.53604,0.16515 0.10655,1.38186 0.64259,1.21671 1.11896,2.78781 1.05855,3.49134 -0.20862,2.42974 -3.64262,9.54758 -4.97827,10.31872 -0.73695,0.42548 -1.02355,1.88341 -0.63689,3.23985 0.38666,1.35644 0.0342,3.76828 -0.78318,5.35965 -0.81738,1.59137 -2.55667,6.77936 -3.86502,11.52888 -1.30835,4.74952 -2.70343,8.5485 -3.1002,8.44218 -0.39677,-0.10632 -1.85189,-1.4949 -3.23359,-3.08577 l -2.51218,-2.89246 2.16606,3.98172 c 1.97489,3.63031 1.97671,4.67384 0.0206,11.82376 -1.17997,4.31312 -2.42639,8.00426 -2.76981,8.20254 -0.34342,0.19828 -1.28142,-0.68912 -2.08443,-1.97198 -1.22202,-1.95226 -1.28335,-1.65097 -0.37626,1.84829 1.78657,6.89198 -0.71993,13.06317 -3.96981,9.77392 -1.19272,-1.20718 -1.51492,-0.81452 -2.77027,3.37595 -2.1144,7.05809 -3.62181,6.9874 -8.67536,-0.40687 l -4.23879,-6.20211 3.10772,5.74305 c 4.0296,7.44667 3.84465,10.45026 -0.80896,13.13702 -2.70029,1.55901 -3.81234,1.68105 -5.15575,0.56576 -1.54027,-1.27873 -1.74784,-1.21706 -2.06018,0.6121 -0.20565,1.20438 -1.6882,2.80824 -3.63457,3.93198 -5.04637,2.91352 -6.40127,2.80642 -8.54411,-0.67543 l -1.91015,-3.10376 0.98692,3.28996 c 0.5428,1.80949 0.84102,3.8089 0.66272,4.44315 -0.57261,2.0368 -4.02741,4.63185 -6.12707,4.60232 z m 15.64511,-23.40189 c -2.16667,-3.75278 -4.11566,-6.28408 -4.61603,-5.99519 -0.93435,0.53945 4.19456,10.05599 6.36875,11.81701 2.39775,1.94211 2.03595,0.74036 -1.75272,-5.82182 z m -52.28787,14.52016 c -1.43591,-0.77259 -1.82626,-0.24858 -0.948,1.27262 0.42873,0.74258 1.03425,0.87669 1.3456,0.29803 0.31135,-0.57866 0.13244,-1.28546 -0.3976,-1.57065 z m 48.28347,-55.10087 c -5.62738,-3.72273 -4.74221,-1.05755 1.02721,3.09283 2.90536,2.09005 4.22372,2.5938 3.86158,1.47552 -0.30242,-0.93389 -2.50238,-2.98964 -4.88879,-4.56835 z m -41.98715,-4.37944 c -1.91464,-0.59182 -4.29344,-0.48599 -5.56397,0.24755 -3.59228,2.07401 -7.88339,-0.29475 -11.64025,-6.4256 -1.84208,-3.00612 -2.58681,-3.85547 -1.75785,-2.00481 3.44683,7.69507 2.8191,10.17919 -2.00412,7.93095 -2.1182,-0.98736 -2.41862,-0.88582 -2.9205,0.98721 -0.49752,1.8568 -1.05159,2.18324 -5.00786,2.95058 -3.46582,0.67222 -5.02065,1.46923 -7.03886,3.60813 -4.082,4.32611 -5.0457,4.52043 -8.19902,1.65333 -4.66356,-4.24025 -5.49103,-3.73546 -1.93396,1.17979 3.18828,4.40562 3.23126,4.61353 1.33393,6.45149 -2.36146,2.28756 -5.3315,2.00851 -6.86343,-0.64487 -0.60127,-1.04142 -1.98758,-2.28843 -3.0807,-2.77113 -1.71685,-0.75811 -1.67397,-0.43724 0.31483,2.35637 3.79156,5.32587 2.54796,10.62801 -2.19472,9.35721 -1.21524,-0.32562 -1.52796,-0.008 -1.3149,1.33651 0.44651,2.81708 -1.54172,3.14334 -5.8196,0.95496 -4.66688,-2.38736 -5.88551,-1.37723 -3.44277,2.85371 l 1.75,3.03109 -4.36136,2.86543 c -3.62502,2.38167 -4.71471,2.67745 -6.45428,1.75193 -1.92828,-1.02593 -2.15037,-0.93521 -2.8231,1.15319 -0.54174,1.68174 -1.16669,2.19219 -2.42159,1.97791 -1.2549,-0.21428 -2.71494,0.94066 -5.63433,4.44741 -3.3426,4.0151 -4.17057,4.61757 -5.43796,3.95691 -1.77426,-0.92487 -2.14841,-2.57704 -1.77272,-7.82797 0.21483,-3.00264 0.90459,-4.26897 2.9818,-5.47432 2.79586,-1.62235 6.27898,-9.87585 5.05931,-11.98838 -0.8029,-1.39068 2.26491,-5.20078 6.38869,-7.93448 2.667,-1.768 3.18456,-2.61191 2.56759,-4.18653 -0.94115,-2.40197 1.29608,-7.5992 4.47305,-10.39121 1.33881,-1.17658 2.15871,-2.88096 1.91642,-3.98377 -0.23291,-1.06007 0.13484,-2.24975 0.81722,-2.64372 0.68238,-0.39397 1.01568,-1.10601 0.74068,-1.58233 -1.22499,-2.12174 2.95135,-2.54799 6.0737,-0.6199 3.4083,2.10468 5.27728,2.2202 4.06484,0.25124 -0.36063,-0.58565 -1.77514,-1.71754 -3.14335,-2.51531 -3.75944,-2.19204 -3.84476,-2.87547 -1.03537,-8.29331 3.88359,-7.48942 5.07371,-9.1102 6.90228,-9.40002 0.91491,-0.14501 1.4144,-0.69507 1.10998,-1.22234 -0.93977,-1.62773 0.80339,-1.87714 3.0392,-0.43486 1.93664,1.2493 1.9406,1.15162 0.0445,-1.10012 -1.64181,-1.94979 -1.82869,-2.87704 -0.88581,-4.39508 2.92614,-4.71111 4.47988,-5.96219 7.57789,-6.10176 3.8366,-0.17283 3.92981,-0.22933 3.00914,-1.82398 -0.85416,-1.47945 1.19238,-3.03781 2.83136,-2.15596 0.75215,0.40469 1.26681,0.0942 1.67591,-1.01121 1.89986,-5.13327 7.82996,-5.90968 12.12956,-1.58807 2.43446,2.44691 2.61583,2.49004 1.48712,0.35355 -1.51021,-2.85861 0.41571,-4.57801 2.74559,-2.4512 0.85236,0.77807 2.3029,0.97983 3.22343,0.44836 1.0093,-0.58272 2.02867,-0.36911 2.56795,0.53812 0.7289,1.22626 0.98707,0.91707 1.39617,-1.6721 0.27605,-1.7471 0.35009,-4.31239 0.16452,-5.70064 -0.2652,-1.98398 0.17228,-2.66939 2.04443,-3.20306 1.31001,-0.37344 2.292,-1.13405 2.1822,-1.69027 -0.1098,-0.55622 0.9212,-1.99496 2.29112,-3.19718 2.16651,-1.90133 2.62523,-1.95297 3.52375,-0.39669 0.56814,0.98405 0.78233,2.25505 0.47598,2.82443 -0.69396,1.28976 0.11241,2.82184 1.16528,2.21397 0.42972,-0.2481 0.51387,-1.85552 0.18701,-3.57207 -0.72037,-3.78295 2.09456,-5.96994 4.79668,-3.72665 1.05409,0.8751 1.79644,0.96318 1.81886,0.21581 0.0493,-1.64454 10.08752,-3.81087 10.94058,-2.36107 0.33272,0.56546 0.58738,2.88661 0.56592,5.1581 -0.0215,2.27149 0.36293,3.89791 0.8542,3.61428 0.49127,-0.28363 0.70395,-1.37713 0.47263,-2.42999 -0.23132,-1.05286 -0.0559,-3.04633 0.38978,-4.42992 0.77094,-2.39324 1.04252,-2.55281 5.58247,-3.27982 3.44299,-0.55136 5.04849,-0.28549 5.76445,0.95459 0.7783,1.34804 1.31046,1.37029 2.46718,0.10312 0.97658,-1.06981 2.43802,-1.41016 4.32585,-1.00742 1.56804,0.33453 5.75937,0.38668 9.31405,0.11591 3.55468,-0.27077 7.32345,-0.0346 8.37506,0.52493 1.05161,0.55953 2.51975,0.6664 3.26254,0.23755 1.76532,-1.01921 4.41421,-0.27326 5.45965,1.53749 0.62163,1.07669 1.32701,1.00997 2.8031,-0.26515 1.53682,-1.32759 2.31386,-1.35833 3.51842,-0.13918 0.85029,0.86059 2.12158,1.23239 2.82509,0.82622 0.70351,-0.40617 1.9365,-0.0731 2.73999,0.74009 0.81301,0.82286 2.6082,1.13261 4.04791,0.69843 1.42287,-0.42909 4.05385,-0.48956 5.84662,-0.13439 1.79277,0.35517 4.70379,0.69092 6.46891,0.74611 3.68168,0.1151 8.93724,3.13437 9.28599,5.3347 0.35258,2.22448 -7.30541,6.40486 -9.75306,5.32405 -1.54319,-0.68145 -3.1994,-0.0443 -8.84388,3.40243 -5.60963,3.42541 -7.08602,3.99682 -7.67792,2.97161 -0.40305,-0.69811 -0.48216,-1.73514 -0.17581,-2.30451 0.30635,-0.56937 0.28717,-1.49831 -0.0426,-2.06427 -0.32977,-0.56596 -1.09814,1.20734 -1.70743,3.94068 -1.15524,5.18254 -3.05502,7.04953 -7.26534,7.13995 -1.37021,0.0294 -3.30719,0.6653 -4.30441,1.41307 -1.40275,1.05186 -2.06509,0.92316 -2.92639,-0.56867 -1.04686,-1.8132 -1.1584,-1.78818 -1.86952,0.41938 -0.8773,2.72343 -3.76282,4.61037 -8.40076,5.49353 -3.92959,0.74829 -5.36178,-1.15446 -5.69634,-7.5679 -0.29687,-5.6908 -0.49358,-5.89862 -1.48027,-1.56389 -0.44896,1.97237 -0.5153,4.10746 -0.14744,4.74462 1.47101,2.54786 -0.27195,6.58947 -4.11856,9.55025 l -3.8708,2.97938 -3.02921,-5.93056 c -1.66607,-3.2618 -3.24306,-5.806 -3.50441,-5.65378 -0.26135,0.15222 0.37615,2.84656 1.41671,5.9874 2.19048,6.61184 1.91011,7.88269 -2.53564,11.49372 l -3.27028,2.65628 -4.06455,-7.89715 c -3.14122,-6.10318 -3.78945,-7.00672 -2.85353,-3.9775 0.66605,2.15579 2.4373,6.09549 3.9361,8.75488 3.07664,5.45902 3.01087,7.94944 -0.21268,8.05328 -1.32004,0.0425 -2.72022,-0.94231 -3.78962,-2.66549 l -1.69606,-2.73293 0.94891,3.176 c 1.49966,5.01932 0.89984,9.22975 -1.4494,10.17409 -1.88386,0.75726 -2.3636,0.30547 -5.93746,-5.59168 -5.62575,-9.28292 -5.71488,-9.40222 -6.62967,-8.87407 -0.46152,0.26646 1.23396,4.32077 3.79246,9.06875 4.38005,8.12833 4.53226,8.66122 2.85029,9.97945 -1.11707,0.8755 -3.01877,1.00872 -5.12143,0.35878 z m -9.64542,-12.71778 c -0.57574,-0.44936 -0.35736,0.34377 0.48529,1.76252 0.84265,1.41875 1.31371,1.78642 1.0468,0.81703 -0.26691,-0.96939 -0.95635,-2.13018 -1.53209,-2.57955 z m -50.56305,22.65186 c -0.60726,-0.32673 -1.51854,-0.35479 -2.02506,-0.0624 -0.57426,0.33155 -0.22167,0.79052 0.9366,1.21921 2.01409,0.74543 2.89126,-0.18686 1.08846,-1.15686 z m 23.26187,-47.83535 c -0.45393,-0.12163 -0.36329,0.50804 0.2014,1.39926 0.62402,0.98489 0.94771,1.07161 0.8253,0.22115 -0.11077,-0.76959 -0.57278,-1.49878 -1.0267,-1.62041 z"
         inkscape:connector-curvature="0"
         style="fill:#ff0000" />
    </g>
  </g>
</svg>
